<svg width="64" height="64" viewBox="0 0 64 64" fill="none" xmlns="http://www.w3.org/2000/svg">
<path d="M61.0834 60.3378C65.0929 55.5589 62.9927 46.761 56.5607 38.0453C59.2302 43.9804 59.5008 49.2873 56.7397 52.5779C51.1768 59.2068 35.4178 55.1412 21.541 43.4971C18.3288 40.8017 15.4994 37.9362 13.1161 35.0421C15.7259 40.6897 20.4905 46.8072 26.8794 52.1682C40.1866 63.3341 55.5003 66.9914 61.0834 60.3378Z" fill="black"/>
<path d="M60.3379 2.57557C55.559 -1.43393 46.7611 0.666214 38.0454 7.09827C43.9804 4.42873 49.2874 4.15813 52.578 6.91927C59.2069 12.4821 55.1412 28.2411 43.4972 42.1179C40.8018 45.3301 37.9363 48.1595 35.0421 50.5429C40.6897 47.9331 46.8073 43.1685 52.1682 36.7795C63.3341 23.4723 66.9915 8.1586 60.3379 2.57557Z" fill="black"/>
<path d="M2.57566 3.32107C-1.43384 8.09997 0.666305 16.8979 7.09837 25.6136C4.42882 19.6785 4.15822 14.3716 6.91936 11.081C12.4822 4.45208 28.2412 8.51774 42.118 20.1618C45.3302 22.8572 48.1596 25.7227 50.5429 28.6169C47.9332 22.9692 43.1685 16.8517 36.7796 11.4908C23.4724 0.324816 8.15869 -3.33253 2.57566 3.32107Z" fill="black"/>
<path d="M3.32107 61.0833C8.09997 65.0928 16.8979 62.9927 25.6136 56.5606C19.6785 59.2302 14.3716 59.5008 11.081 56.7396C4.45208 51.1767 8.51774 35.4178 20.1618 21.5409C22.8572 18.3288 25.7227 15.4993 28.6169 13.116C22.9692 15.7258 16.8517 20.4904 11.4908 26.8793C0.324815 40.1866 -3.33253 55.5003 3.32107 61.0833Z" fill="black"/>
<path d="M31.8289 19.8295L31.829 34.8641L23.4169 34.8641L31.8289 19.8295Z" fill="black"/>
<path d="M31.8303 43.8295L31.8302 28.7948L40.2423 28.7948L31.8303 43.8295Z" fill="black"/>
</svg>
