<svg width="40" height="41" viewBox="0 0 40 41" fill="none" xmlns="http://www.w3.org/2000/svg">
<path d="M28.2637 4L23.2549 17.7217H26.0977L14.3965 40L18.1426 22.0986H15.3428L17.7754 4H28.2637ZM36 20.46C35.9998 29.5498 28.8365 36.918 20 36.918C19.0315 36.918 18.0831 36.8298 17.1621 36.6602L19.7793 31.9219C19.8527 31.9233 19.9263 31.9238 20 31.9238C26.1548 31.9238 31.1443 26.7912 31.1445 20.46V17.0645L36 17.0518V20.46ZM14.0273 8.99512H8.85547V20.46C8.85564 25.0249 11.4498 28.9666 15.2041 30.8105L14.3105 35.8477C8.28314 33.4881 4.00019 27.4884 4 20.46V4.00098H14.6572L14.0273 8.99512ZM31.1045 4.00098C33.808 4.00097 35.9998 6.25507 36 9.03613V14.875L31.1445 14.8877V9.03613C31.1445 9.02751 31.143 9.02255 31.1426 9.02148C31.1414 9.0184 31.1382 9.01331 31.1328 9.00781C31.1302 9.00519 31.1281 9.00255 31.126 9.00098L31.1162 8.99609C31.114 8.99555 31.11 8.99512 31.1045 8.99512L26.4258 9.03613L28.2646 4L31.1045 4.00098Z" fill="black"/>
</svg>
